# xmcd
#
# Track frame offsets: 
#        150
#        17061
#        47796
#        64404
#        87047
#        111621
#        130652
#        152752
#        181011
#        193902
#        212627
#        232853
#        251168
#
# Disc length: 3638 seconds
#
# Revision: 1
# Processed by: cddbd v1.5.1PL2 Copyright (c) Steve Scherf et al.
# Submitted via: ExactAudioCopy v0.95b3
#
DISCID=b20e340d
DTITLE=Reverend Raven - Big Bee
DYEAR=2006
DGENRE=Blues
TTITLE0=My Life
TTITLE1=Big Bee
TTITLE2=Once The Women Start Talkin
TTITLE3=Someday When I Am Dead and Gone
TTITLE4=You Ain't No Friend Of Mine
TTITLE5=Two Times Fine
TTITLE6=I Don't Want To Know
TTITLE7=Here Comes My Baby
TTITLE8=Benny's Bounce
TTITLE9=Don't Get On The Wrong Side Of My Baby
TTITLE10=Bad Little Girls
TTITLE11=I Want To Love You
TTITLE12=She's Movin On
EXTD=
EXTT0=
EXTT1=
EXTT2=
EXTT3=
EXTT4=
EXTT5=
EXTT6=
EXTT7=
EXTT8=
EXTT9=
EXTT10=
EXTT11=
EXTT12=
PLAYORDER=
